<?xml version="1.0" encoding="UTF-8"?>
<svg width="180px" height="180px" viewBox="0 0 180 180" version="1.1" xmlns="http://www.w3.org/2000/svg" xmlns:xlink="http://www.w3.org/1999/xlink">
    <title>60@3x</title>
    <g id="60@3x" stroke="none" stroke-width="1" fill="none" fill-rule="evenodd">
        <g id="编组-4">
            <polygon id="矩形备份" fill="#5694FF" points="0 0 180 0 180 180 0 180"></polygon>
            <path d="M90,16.875 C130.385822,16.875 163.125,49.6141777 163.125,90 C163.125,130.385822 130.385822,163.125 90,163.125 C49.6141777,163.125 16.875,130.385822 16.875,90 C16.875,49.6141777 49.6141777,16.875 90,16.875 Z" id="矩形备份-4" fill="#FFFFFF"></path>
            <g id="编组" transform="translate(34.101562, 60.644531)" fill="#5694FF">
                <path d="M55.9863281,19.5117188 C58.8502266,19.5117188 61.171875,21.8333672 61.171875,24.6972656 L61.171875,34.0136719 C61.171875,36.8775703 58.8502266,39.1992188 55.9863281,39.1992188 C53.1224297,39.1992188 50.8007812,36.8775703 50.8007812,34.0136719 L50.8007812,24.6972656 C50.8007812,21.8333672 53.1224297,19.5117188 55.9863281,19.5117188 Z" id="矩形备份-9"></path>
                <path d="M72.8613281,11.0742188 C75.7252266,11.0742188 78.046875,13.3958672 78.046875,16.2597656 L78.046875,42.4511719 C78.046875,45.3150703 75.7252266,47.6367188 72.8613281,47.6367188 C69.9974297,47.6367188 67.6757812,45.3150703 67.6757812,42.4511719 L67.6757812,16.2597656 C67.6757812,13.3958672 69.9974297,11.0742188 72.8613281,11.0742188 Z" id="矩形备份-10"></path>
                <path d="M39.1113281,11.0742188 C41.9752266,11.0742188 44.296875,13.3958672 44.296875,16.2597656 L44.296875,42.4511719 C44.296875,45.3150703 41.9752266,47.6367188 39.1113281,47.6367188 C36.2474297,47.6367188 33.9257812,45.3150703 33.9257812,42.4511719 L33.9257812,16.2597656 C33.9257812,13.3958672 36.2474297,11.0742188 39.1113281,11.0742188 Z" id="矩形备份-8"></path>
                <path d="M22.0605469,0 C24.9244453,-5.26089612e-16 27.2460938,2.32164842 27.2460938,5.18554688 L27.2460938,53.5253906 C27.2460938,56.3892891 24.9244453,58.7109375 22.0605469,58.7109375 C19.1966484,58.7109375 16.875,56.3892891 16.875,53.5253906 L16.875,5.18554688 C16.875,2.32164842 19.1966484,5.26089612e-16 22.0605469,0 Z" id="矩形备份-7"></path>
                <path d="M5.18554688,11.0742188 C8.04944533,11.0742188 10.3710938,13.3958672 10.3710938,16.2597656 L10.3710938,42.4511719 C10.3710938,45.3150703 8.04944533,47.6367188 5.18554688,47.6367188 C2.32164842,47.6367188 -6.58334464e-16,45.3150703 0,42.4511719 L0,16.2597656 C-3.50726408e-16,13.3958672 2.32164842,11.0742188 5.18554688,11.0742188 Z" id="矩形备份-12"></path>
                <path d="M106.611328,11.0742188 C109.475227,11.0742188 111.796875,13.3958672 111.796875,16.2597656 L111.796875,42.4511719 C111.796875,45.3150703 109.475227,47.6367188 106.611328,47.6367188 C103.74743,47.6367188 101.425781,45.3150703 101.425781,42.4511719 L101.425781,16.2597656 C101.425781,13.3958672 103.74743,11.0742188 106.611328,11.0742188 Z" id="矩形备份-13"></path>
                <path d="M89.7363281,0 C92.6002266,-5.26089612e-16 94.921875,2.32164842 94.921875,5.18554688 L94.921875,53.5253906 C94.921875,56.3892891 92.6002266,58.7109375 89.7363281,58.7109375 C86.8724297,58.7109375 84.5507812,56.3892891 84.5507812,53.5253906 L84.5507812,5.18554688 C84.5507812,2.32164842 86.8724297,5.26089612e-16 89.7363281,0 Z" id="矩形备份-11"></path>
            </g>
        </g>
    </g>
</svg>